# xmcd CD database file
#
# Track frame offsets:
#	150
#	19614
#	40272
#	66290
#	89444
#	102817
#	125809
#	148506
#	163738
#	181977
#
# Disc length: 2720 seconds
#
# Revision: 0
# Processed by: cddbd v1.5.1PL2 Copyright (c) Steve Scherf et al.
# Submitted via: CDex 1.51
#
DISCID=870a9e0a
DTITLE=Kiers en de Vries - Superglued
DYEAR=2003
DGENRE=Jazz
TTITLE0=Youshouldknowdizz
TTITLE1=Superglued
TTITLE2=Cookie's Kitchen
TTITLE3=Whole Lotta Sax
TTITLE4=Bonus Track
TTITLE5=Monkey Hips
TTITLE6=Carribean Kick
TTITLE7=Dizzyness
TTITLE8=Tarzan Flip
TTITLE9=Peeppeep
EXTD=YEAR: 2003
EXTT0=
EXTT1=
EXTT2=
EXTT3=
EXTT4=
EXTT5=
EXTT6=
EXTT7=
EXTT8=
EXTT9=
PLAYORDER=
